<?xml version="1.0" encoding="utf-8"?>
<!-- Generator: Adobe Illustrator 17.0.0, SVG Export Plug-In . SVG Version: 6.00 Build 0)  -->
<!DOCTYPE svg PUBLIC "-//W3C//DTD SVG 1.1//EN" "http://www.w3.org/Graphics/SVG/1.1/DTD/svg11.dtd">
<svg version="1.1" id="Layer_1" xmlns="http://www.w3.org/2000/svg" xmlns:xlink="http://www.w3.org/1999/xlink" x="0px" y="0px"
	 width="3044px" height="459px" viewBox="0 0 3044 459" enable-background="new 0 0 3044 459" xml:space="preserve">
<g>
	<path d="M1257.51,0.5h7.99c10.52,1.43,20.02,8.68,23.94,18.57c3.34,8.06,1.93,16.95,2.17,25.43c0.16,69.63-0.28,139.29,0.22,208.91
		c4.99-2.52,9.51-5.84,14.2-8.87c52.3-34.03,104.62-68.03,156.91-102.07c7.39-4.82,16.87-5.44,25.23-3.12
		c9.26,2.63,16.34,10.49,19.51,19.38c3.79,11.45,0.63,25.73-9.63,32.8c-39.91,26.17-80.2,51.81-120,78.14
		c2.37,3.5,5.31,6.53,8.15,9.65c37.37,41.96,74.58,84.08,112,126c4.98,5.4,9.74,11.64,10.64,19.17
		c2.52,14.62-7.54,30.29-22.01,33.78c-5.99,1.19-12.33,1.14-18.21-0.55c-7.49-2.37-12.33-8.92-17.32-14.54
		c-38.58-43.42-77.26-86.75-115.84-130.17c-2.98-3.37-5.71-7.02-9.37-9.69c-9.44,5.47-18.25,11.98-27.55,17.69
		c-3.03,2.09-7.59,3.96-6.94,8.43c0.02,33.32,0.03,66.65,0.02,99.97c0.02,14.48-11.85,28.6-26.6,29.51
		c-11.06,1.56-22.4-3.6-28.53-12.9c-5.65-7.63-5.35-17.51-5.12-26.52c0.03-126,0.01-252,0.01-378c0.09-7.54-0.85-15.44,2.15-22.58
		C1237.55,9.1,1247,1.93,1257.51,0.5z M2106.45,30.82c-0.18,86.22,0.01,172.45-0.09,258.67c-0.07,9.87,0.43,19.74,1.3,29.57
		c7.71,72.06,70.88,134.06,143.32,139.52c17.75,0.68,35.82,1.11,53.2-3.17c30.69-6.86,58.59-23.87,80.11-46.61
		c28.05-28.49,44.19-68.29,43.61-108.29c0.89-31.99-8.36-64.15-26.23-90.7c-15.08-21.94-35.36-40.33-58.61-53.28
		c-23.27-12.42-49.66-19.02-76.06-18.44c-30.2-0.57-60.58,7.92-85.8,24.6c-4.9,3.11-9.21,7.05-14.24,9.95
		c-0.73-48.28,0.03-96.61-0.37-144.9c-0.25-14.05-12.45-25.72-26.09-27.24h-7.96C2117.49,1.72,2105.82,15.93,2106.45,30.82z
		 M2314.39,210.05c29.71,15.64,50.4,46.96,53.24,80.4c0.53,13.41-0.44,27.14-4.98,39.87c-9.51,28.4-32.3,52.11-60.42,62.51
		c-27.05,10.58-58.84,8.03-83.99-6.46c-21.66-12-38.41-32.41-46.32-55.84c-8.6-25.15-6.55-53.76,5.79-77.33
		c14.95-30.11,46.01-51.81,79.62-54.52C2276.92,196.52,2297.18,200.38,2314.39,210.05z M361.39,167.53
		c-0.01,87.31-0.02,174.62,0,261.93c-0.44,15.36,13.16,29.77,28.64,29.55c17.8,2.04,33.58-15.02,31.63-32.52
		c0.04-42.66,0.03-85.33,0-127.99c-0.52-20.46,6.53-40.6,17.96-57.39c16-23.28,42.33-38.81,70.27-42.36
		c17.49-1.71,35.62-0.21,51.87,6.88c8.14,3.72,18.01,3.93,25.98-0.34c13.64-6.75,20.33-24.72,14.32-38.72
		c-2.9-6.99-9.09-11.88-15.4-15.69c-12.26-6.98-26.31-9.81-40.14-11.68c-15.72-1.31-31.62-1.84-47.28,0.44
		c-28.35,3.24-54.56,16.28-77.32,32.99c0.15-7.56-0.82-15.38-5.47-21.63c-7.87-11.87-24.46-16.25-37.33-10.4
		C368.63,145.14,361.5,156.14,361.39,167.53z M604.38,232.91c-16.58,37.71-18.06,81.86-4.41,120.69
		c13.45,37.01,41.46,68.26,75.82,87.2c29.41,16.32,64.15,20.92,97.26,17.05c34.93-3.84,67.85-20.94,92.36-45.94
		c20.19-19.56,35.01-44.63,41.93-71.9c8.67-35.13,5.85-73.11-8.39-106.41c-17.24-38.31-49.87-69.59-88.96-85.02
		c-25.44-10.02-53.48-12.27-80.5-9.29C675.09,145.56,626.94,183.61,604.38,232.91z M790.34,206.05
		c30.96,12.91,54.56,42.21,60.18,75.32c4.59,23.73-0.57,48.89-13.26,69.37c-17,28.09-48.33,47.26-81.28,48.37
		c-34.21,2.04-68.59-15.61-87.54-44.04c-11.27-16.91-17.92-37.17-17.45-57.57c-0.13-23.8,9.5-47.15,24.93-65.07
		c16.58-18.77,40.31-31.76,65.43-33.72C757.9,197.04,775.07,199.27,790.34,206.05z M955.57,217.06
		c-13.73,22.65-21.07,49.03-21.68,75.47c-1.28,31.37,6.25,63.36,23.1,90.01c24.04,38.01,63.47,67.07,108.29,74.47
		c11.76,2.22,23.78,1.94,35.7,1.94c36.11-0.51,71.77-14.73,98.49-39c11.57-10.62,12.57-30.32,2.03-41.98
		c-10.71-12.29-31.21-12.8-43.28-2.23c-16.44,14.05-37.52,22.86-59.23,23.37c-38.16,2.23-76.53-19.81-93.86-53.87
		c-13.58-24.93-15.33-56.02-4.87-82.38c9.99-27.33,32.91-49.09,60.17-58.89c15.08-5.92,31.63-6.76,47.6-5.11
		c19.22,2.33,36.93,11.67,51.66,23.94c6.39,5.45,14.96,7.94,23.3,6.95c14.3-0.75,26.66-13.94,26.42-28.28
		c1.13-11.34-5.36-21.72-14.4-28.03c-33.42-28.61-79.33-39.7-122.53-34.16C1023.96,144.8,980.61,175.75,955.57,217.06z
		 M1519.25,220.72c-30.54,54.78-25.67,128.3,14.48,177.06c24.23,30.54,59.3,53.28,98.16,59.19c11.54,2.39,23.37,1.94,35.09,1.98
		c35.43-0.48,70.34-14.24,97.03-37.47c10.23-8.66,12.66-24.29,7.16-36.22c-4.74-10.23-15.9-17.11-27.19-16.55
		c-8.72-0.29-16.52,4.4-22.85,9.95c-23.94,19.67-57.71,25.21-87.25,16.95c-32.55-8.58-60.52-34.49-69.78-67.08
		c75.98-0.19,151.96-0.04,227.95-0.08c14.2,0.39,27.62-11.71,28.75-25.86c1.28-31.96-7.34-64.26-24.91-91.04
		c-21.42-31.65-53.31-56.96-90.35-67.44c-28.49-8.15-59.14-7.97-87.82-0.8C1576.04,154.05,1540.66,183.83,1519.25,220.72z
		 M1661,198.15c36.15,0,71.32,21.24,88.35,53.11c2.84,5.52,5.95,11.1,6.91,17.32c-64.03,0.42-128.11,0.36-192.14,0.04
		C1575.46,226.71,1618.21,197.51,1661,198.15z M1842.05,174.5c0.02,85.36-0.01,170.72,0.02,256.07
		c-0.12,15.51,14.41,29.43,29.94,28.46c16.03,1.13,30.61-13.67,30.18-29.54c0.19-44.68-0.01-89.36,0.1-134.03
		c0.18-44.55,34.46-85.49,77.77-94.87c22.07-4.86,45.69-2.63,66.39,6.5c17.24,6.27,36.63-7.85,38.21-25.57
		c0.99-8.33-1.57-17.14-7.58-23.1c-9.49-9.47-22.63-14.09-35.51-16.67c-15.88-3.68-32.31-3.91-48.52-3.46
		c-33.05,1.31-65.06,14.53-90.83,35c-0.1-4.14,0.09-8.34-0.81-12.41c-3.07-13.48-16.5-23.93-30.43-22.78
		c-11.45-0.08-22.19,7.47-26.59,17.92C1841.51,161.75,1842.05,168.3,1842.05,174.5z M2517.83,167.32
		c-29.63,21.61-53.01,52.68-62.42,88.39c-3.14,13.7-5.74,27.65-5.21,41.77c-1.27,42.65,16.43,85.15,46.99,114.83
		c29.44,30.24,71.45,48.2,113.81,46.63c58.81,2.3,114.73-34.16,142.42-85.02c21.76-41.13,23.68-91.72,7.01-134.96
		c-11.92-30.26-33.96-55.95-60.63-74.29c-30.23-20.94-68.05-29.45-104.47-25.92C2567.54,141.03,2540.29,150.7,2517.83,167.32z
		 M2671.6,218.87c26.9,20.44,42.77,54.91,39.37,88.7c-2.42,29.36-19.09,56.96-43.23,73.67c-22.64,15.84-51.92,21.96-78.89,15.6
		c-41.99-8.85-75.7-47.41-78.25-90.35c-3.39-34.72,13.89-70.21,42.37-90.05c12.62-8.88,27.24-14.85,42.49-17.23
		C2622.16,195.05,2650.25,202.32,2671.6,218.87z M2773.42,188.06c27.77,32.91,55.38,65.95,83.1,98.91c3.11,3.8,6.61,7.31,9.22,11.5
		c-28.32,34.54-57.19,68.67-85.74,103.04c-4.29,5.39-9.63,10.27-11.97,16.92c-3.12,10.25-1.85,22.35,5.53,30.54
		c7.76,9.92,22.05,12.17,33.56,8.49c7.79-2.86,12.64-9.96,17.77-16.05c26.73-31.94,53.35-63.99,80.21-95.81
		c29.58,34.39,57.98,69.86,87.3,104.49c7.94,9.11,21.52,10.98,32.56,7.26c10.25-3.86,17.18-13.75,19.04-24.33v-8.03
		c-0.92-5.17-2.77-10.27-6.17-14.33c-28.38-33.95-56.69-67.97-85.06-101.94c-2.83-3.33-5.82-6.54-8.1-10.27
		c2.38-4.24,5.82-7.7,8.92-11.4c26.21-31.12,52.28-62.36,78.51-93.46c5.86-6.31,10.9-13.8,11.9-22.57v-6.01
		c-1.22-10.52-8.09-20.35-17.89-24.56c-11.36-4.7-25.98-2.76-34.12,7.01c-25.88,30.8-51.6,61.73-77.48,92.53
		c-3.02,3.63-5.8,7.51-9.4,10.6c-25.81-29.96-50.83-60.64-76.34-90.87c-6.2-7.07-11.44-15.73-20.48-19.49
		c-10.99-4.42-24.81-2.24-33.19,6.36C2764.4,157.37,2763.31,176.55,2773.42,188.06z"/>
	<g>
		<rect x="79.752" y="218" width="241" height="241"/>
		<rect x="79.752" y="218" width="79" height="79"/>
		<rect x="158.752" y="297" width="162" height="162"/>
		<rect x="240.252" y="378.5" width="80.5" height="80.5"/>
		<rect x="241.252" y="138.5" width="79.5" height="79.5"/>
		<rect x="0.252" y="297" width="79.5" height="162"/>
	</g>
</g>
</svg>
